<svg width="16" height="19" viewBox="0 0 16 19" fill="none" xmlns="http://www.w3.org/2000/svg">
<path d="M0.75 17.5H15.25C15.6642 17.5 16 17.8358 16 18.25C16 18.6297 15.7178 18.9435 15.3518 18.9932L15.25 19H0.75C0.335786 19 0 18.6642 0 18.25C0 17.8703 0.282154 17.5565 0.64823 17.5068L0.75 17.5H15.25H0.75ZM12.25 0C14.3211 0 16 1.67893 16 3.75V12.25C16 14.3211 14.3211 16 12.25 16H3.75C1.67893 16 0 14.3211 0 12.25V3.75C0 1.67893 1.67893 0 3.75 0H12.25ZM12.25 1.5H3.75C2.50736 1.5 1.5 2.50736 1.5 3.75V12.25C1.5 13.4926 2.50736 14.5 3.75 14.5H12.25C13.4926 14.5 14.5 13.4926 14.5 12.25V3.75C14.5 2.50736 13.4926 1.5 12.25 1.5Z" fill="#3D5DFF"/>
</svg>
