<svg width="20" height="20" viewBox="0 0 20 20" fill="none" xmlns="http://www.w3.org/2000/svg">
<path d="M8.59111 0.512032C9.49466 0.145729 10.5053 0.145729 11.4089 0.512032L18.9075 3.552C19.5679 3.81973 20 4.46118 20 5.1738V14.8265C20 15.5391 19.5679 16.1806 18.9075 16.4483L11.4089 19.4883C10.5053 19.8546 9.49466 19.8546 8.59111 19.4883L1.09252 16.4483C0.432107 16.1806 0 15.5391 0 14.8265V5.1738C0 4.46118 0.432107 3.81973 1.09252 3.552L8.59111 0.512032ZM10.8453 1.90214C10.3032 1.68236 9.69679 1.68236 9.15466 1.90214L7.24097 2.67796L14.7678 5.60506L17.437 4.57444L10.8453 1.90214ZM12.6911 6.40689L5.21472 3.49941L2.59029 4.56338L10.0013 7.44545L12.6911 6.40689ZM1.5 14.8265C1.5 14.9283 1.56173 15.0199 1.65607 15.0582L9.15466 18.0982C9.18635 18.111 9.21825 18.1231 9.25035 18.1344V8.76284L1.5 5.74881V14.8265ZM10.8453 18.0982L18.3439 15.0582C18.4383 15.0199 18.5 14.9283 18.5 14.8265V5.77194L10.7503 8.76417V18.1342C10.7822 18.1229 10.8139 18.1109 10.8453 18.0982Z" fill="#8A8A8E"/>
</svg>
