<svg width="17" height="17" viewBox="0 0 17 17" fill="none" xmlns="http://www.w3.org/2000/svg">
<path d="M0 2.25C0 1.00736 1.00736 0 2.25 0H10.75C11.9926 0 13 1.00736 13 2.25V10H16.5V13.25C16.5 15.0449 15.0449 16.5 13.25 16.5H3.25C1.45507 16.5 0 15.0449 0 13.25V2.25ZM13 11.5V15H13.25C14.2165 15 15 14.2165 15 13.25V11.5H13ZM11.5 15V2.25C11.5 1.83579 11.1642 1.5 10.75 1.5H2.25C1.83579 1.5 1.5 1.83579 1.5 2.25V13.25C1.5 14.2165 2.2835 15 3.25 15H11.5ZM3.00001 4.75C3.00001 4.33579 3.3358 4 3.75001 4H9.25001C9.66423 4 10 4.33579 10 4.75C10 5.16422 9.66423 5.5 9.25001 5.5H3.75001C3.3358 5.5 3.00001 5.16422 3.00001 4.75ZM3.00001 8.25C3.00001 7.83579 3.3358 7.5 3.75001 7.5H9.25001C9.66423 7.5 10 7.83579 10 8.25C10 8.66422 9.66423 9 9.25001 9H3.75001C3.3358 9 3.00001 8.66422 3.00001 8.25ZM3.00001 11.75C3.00001 11.3358 3.3358 11 3.75001 11H6.25001C6.66423 11 7.00001 11.3358 7.00001 11.75C7.00001 12.1642 6.66423 12.5 6.25001 12.5H3.75001C3.3358 12.5 3.00001 12.1642 3.00001 11.75Z" fill="#3D5DFF"/>
</svg>
