<svg width="20" height="20" viewBox="0 0 20 20" fill="none" xmlns="http://www.w3.org/2000/svg">
<path d="M16.7801 0.21967C16.4872 -0.0732233 16.0123 -0.0732233 15.7195 0.21967C15.4266 0.512563 15.4266 0.987437 15.7195 1.28033L17.4391 3H11.2498C9.73101 3 8.4998 4.23119 8.49978 5.74996L8.49965 15.2469C8.49964 15.9373 7.94 16.4969 7.24965 16.4969H5.95806C5.71874 15.0796 4.48546 14 3.00003 14C1.34316 14 0 15.3432 0 17C0 18.6569 1.34316 20.0001 3.00003 20.0001C4.30743 20.0001 5.4195 19.1638 5.83046 17.9969H7.24965C8.76841 17.9969 9.99963 16.7657 9.99965 15.247L9.99978 5.74998C9.99979 5.05963 10.5594 4.5 11.2498 4.5H17.4391L15.7195 6.21967C15.4266 6.51256 15.4266 6.98744 15.7195 7.28033C16.0123 7.57322 16.4872 7.57322 16.7801 7.28033L19.7801 4.28033C20.073 3.98744 20.073 3.51256 19.7801 3.21967L16.7801 0.21967ZM1.5 17C1.5 16.1716 2.17159 15.5 3.00003 15.5C3.82848 15.5 4.50006 16.1716 4.50006 17C4.50006 17.8285 3.82848 18.5001 3.00003 18.5001C2.17159 18.5001 1.5 17.8285 1.5 17Z" fill="#3D5DFF"/>
</svg>
