<svg width="18" height="18" viewBox="0 0 18 18" fill="none" xmlns="http://www.w3.org/2000/svg">
<path d="M13.5303 8.7204L13.4462 8.64779C13.1526 8.42993 12.7359 8.45414 12.4697 8.7204L9.75029 11.4397L9.75 4.75003L9.74315 4.64826C9.69349 4.28218 9.3797 4.00003 9 4.00003L8.89823 4.00688C8.53215 4.05654 8.25 4.37033 8.25 4.75003L8.2503 11.4417L5.52961 8.7198L5.4455 8.64717C5.15193 8.42926 4.73527 8.45338 4.46895 8.7196C4.176 9.01244 4.17591 9.48731 4.46875 9.78026L8.46875 13.7818L8.55286 13.8544C8.84647 14.0724 9.2632 14.0482 9.52951 13.7819L13.5303 9.78106L13.6029 9.69695C13.8208 9.40333 13.7966 8.98667 13.5303 8.7204ZM3.25 0C1.45507 0 0 1.45507 0 3.25V14.75C0 16.5449 1.45507 18 3.25 18H14.75C16.5449 18 18 16.5449 18 14.75V3.25C18 1.45507 16.5449 0 14.75 0H3.25ZM1.5 3.25C1.5 2.2835 2.2835 1.5 3.25 1.5H14.75C15.7165 1.5 16.5 2.2835 16.5 3.25V14.75C16.5 15.7165 15.7165 16.5 14.75 16.5H3.25C2.2835 16.5 1.5 15.7165 1.5 14.75V3.25Z" fill="#3D5DFF"/>
</svg>
