<svg width="80" height="80" viewBox="0 0 80 80" fill="none" xmlns="http://www.w3.org/2000/svg">
<rect width="80" height="80" rx="40" fill="#FF3B30"/>
<path d="M28.0751 28.0946C28.5633 27.6065 29.3547 27.6065 29.8429 28.0946L39.9999 38.2517L50.157 28.0946C50.6452 27.6065 51.4366 27.6065 51.9248 28.0946C52.413 28.5828 52.413 29.3742 51.9248 29.8624L41.7677 40.0195L51.886 50.1378C52.3742 50.6259 52.3742 51.4174 51.886 51.9056C51.3979 52.3937 50.6064 52.3937 50.1183 51.9056L39.9999 41.7872L29.8816 51.9056C29.3935 52.3937 28.602 52.3937 28.1139 51.9056C27.6257 51.4174 27.6257 50.6259 28.1139 50.1378L38.2322 40.0195L28.0751 29.8624C27.5869 29.3742 27.5869 28.5828 28.0751 28.0946Z" fill="white"/>
</svg>
