<svg width="19" height="18" viewBox="0 0 19 18" fill="none" xmlns="http://www.w3.org/2000/svg">
<path d="M12 17.4C12.3313 17.4 12.6 17.1313 12.6 16.8C12.6 16.4686 12.3313 16.2 12 16.2H4.19998C2.87449 16.2 1.79998 15.1255 1.79998 13.8V4.19998C1.79998 2.87449 2.87449 1.79998 4.19998 1.79998H12C12.3313 1.79998 12.6 1.53135 12.6 1.19998C12.6 0.868605 12.3313 0.599976 12 0.599976H4.19998C2.21175 0.599976 0.599976 2.21175 0.599976 4.19998V13.8C0.599976 15.7882 2.21175 17.4 4.19998 17.4H12ZM13.3757 4.37571C13.61 4.1414 13.9899 4.1414 14.2242 4.37571L18.4242 8.57571C18.6586 8.81003 18.6586 9.18993 18.4242 9.42424L14.2242 13.6242C13.9899 13.8586 13.61 13.8586 13.3757 13.6242C13.1414 13.3899 13.1414 13.01 13.3757 12.7757L16.5514 9.59998H5.99998C5.6686 9.59998 5.39998 9.33135 5.39998 8.99998C5.39998 8.66861 5.6686 8.39998 5.99998 8.39998H16.5514L13.3757 5.22424C13.1414 4.98993 13.1414 4.61003 13.3757 4.37571Z" fill="#FF3B30"/>
</svg>
