<svg width="34" height="38" viewBox="0 0 34 38" fill="current" xmlns="http://www.w3.org/2000/svg">
<path d="M14.6062 0.855174C16.0048 -0.285057 17.9952 -0.285059 19.3938 0.855174L32.5688 11.5966C33.4736 12.3342 34 13.4492 34 14.628V34.1134C34 36.2599 32.2875 38 30.175 38H25.075C22.9625 38 21.25 36.2599 21.25 34.1134V24.7492C21.25 24.0337 20.6792 23.4536 19.975 23.4536H14.025C13.3208 23.4536 12.75 24.0337 12.75 24.7492V34.1134C12.75 36.2599 11.0375 38 8.925 38H3.825C1.71251 38 0 36.2599 0 34.1134V14.628C0 13.4493 0.526446 12.3342 1.43124 11.5966L14.6062 0.855174Z" fill="current"/>
</svg>
