<svg width="24" height="24" viewBox="0 0 24 22" fill="current" xmlns="http://www.w3.org/2000/svg">
<path d="M17.4982 0C15.0129 0 12.9982 2.01472 12.9982 4.5L12.9979 7L11.3786 8.87562C11.1619 9.12662 11.0535 9.25212 11.0226 9.35163C10.947 9.59511 11.0666 9.85652 11.3004 9.95837C11.3959 10 11.5617 10 11.8933 10H23.1027C23.4343 10 23.6001 10 23.6956 9.95837C23.9294 9.85652 24.049 9.59511 23.9734 9.35163C23.9424 9.25212 23.8341 9.1266 23.6174 8.87561L21.9982 7V4.5C21.9982 2.01472 19.9834 0 17.4982 0ZM17.4982 13C18.6027 13 19.4982 12.1046 19.4982 11H15.4982C15.4982 12.1046 16.3936 13 17.4982 13ZM11 13.1547L14.5196 11.3242C14.5757 11.8468 14.7661 12.3293 15.0555 12.7363L11.346 14.6654C11.1653 14.7594 10.9558 14.7751 10.7655 14.7124L10.654 14.6654L1.5 9.905V18.75C1.5 19.6682 2.20711 20.4212 3.10647 20.4942L3.25 20.5H18.75C19.6682 20.5 20.4212 19.7929 20.4942 18.8935L20.5 18.75V11.1171C20.5015 11.0783 20.5022 11.0392 20.5022 11L22 11V18.75C22 20.483 20.6435 21.8992 18.9344 21.9949L18.75 22H3.25C1.51697 22 0.100754 20.6435 0.00514483 18.9344L0 18.75V7.25C0 5.51697 1.35645 4.10075 3.06558 4.00514L3.25 4H12.0247C12.0098 4.16468 12.0022 4.33146 12.0022 4.5L12.0022 5.5H3.25C2.33183 5.5 1.57881 6.20711 1.5058 7.10647L1.5 7.25V8.214L11 13.1547Z" fill="current"/>
</svg>
