<svg width="24" height="24" viewBox="0 0 20 24" fill="current" xmlns="http://www.w3.org/2000/svg">
<path d="M0.666626 2.95833C0.666626 1.50859 1.84188 0.333333 3.29163 0.333333H8.25452V5.87212C8.25452 7.32186 9.42977 8.49712 10.8795 8.49712H16.4166V18.125C16.4166 19.5747 15.2414 20.75 13.7916 20.75H3.29163C1.84188 20.75 0.666626 19.5747 0.666626 18.125V2.95833ZM5.04163 11.4167C4.55838 11.4167 4.16663 11.8084 4.16663 12.2917C4.16663 12.7749 4.55838 13.1667 5.04163 13.1667C5.52487 13.1667 5.91663 12.7749 5.91663 12.2917C5.91663 11.8084 5.52487 11.4167 5.04163 11.4167ZM4.16663 15.7917C4.16663 16.2749 4.55838 16.6667 5.04163 16.6667C5.52487 16.6667 5.91663 16.2749 5.91663 15.7917C5.91663 15.3084 5.52487 14.9167 5.04163 14.9167C4.55838 14.9167 4.16663 15.3084 4.16663 15.7917ZM7.66663 12.2917C7.66663 12.7749 8.05838 13.1667 8.54163 13.1667H12.1043C12.5876 13.1667 12.9793 12.7749 12.9793 12.2917C12.9793 11.8084 12.5876 11.4167 12.1043 11.4167H8.54163C8.05838 11.4167 7.66663 11.8084 7.66663 12.2917ZM8.54163 14.9167C8.05838 14.9167 7.66663 15.3084 7.66663 15.7917C7.66663 16.2749 8.05838 16.6667 8.54163 16.6667H12.1043C12.5876 16.6667 12.9793 16.2749 12.9793 15.7917C12.9793 15.3084 12.5876 14.9167 12.1043 14.9167H8.54163ZM10.0045 5.87212V0.878496C10.0936 0.947125 10.1787 1.02177 10.2591 1.10218L15.6478 6.49083C15.7287 6.57174 15.8038 6.65739 15.8728 6.74712H10.8795C10.3963 6.74712 10.0045 6.35537 10.0045 5.87212ZM3.73368 21.9167C4.09404 22.9362 5.06637 23.6667 6.20932 23.6667H13.7926C16.8532 23.6667 19.3343 21.1856 19.3343 18.125V11.2637C19.3343 10.5675 19.0578 9.89981 18.5655 9.40753L17.5843 8.42637V18.125C17.5843 20.2191 15.8867 21.9167 13.7926 21.9167H3.73368Z" fill="current"/>
</svg>
