<svg width="24" height="24" viewBox="0 0 24 22" fill="current" xmlns="http://www.w3.org/2000/svg">
<path d="M17.4982 0C15.0129 0 12.9982 2.01472 12.9982 4.5L12.9979 7L11.3786 8.87562C11.1619 9.12662 11.0535 9.25212 11.0226 9.35163C10.947 9.59511 11.0666 9.85652 11.3004 9.95837C11.3959 10 11.5617 10 11.8933 10H23.1027C23.4343 10 23.6001 10 23.6956 9.95837C23.9294 9.85652 24.049 9.59511 23.9734 9.35163C23.9424 9.25212 23.8341 9.1266 23.6174 8.87561L21.9982 7V4.5C21.9982 2.01472 19.9834 0 17.4982 0ZM17.4982 13C18.6027 13 19.4982 12.1046 19.4982 11H15.4982C15.4982 12.1046 16.3936 13 17.4982 13ZM10.0717 9.0549C10.1434 8.82416 10.2741 8.64922 10.3434 8.55938C10.4186 8.462 10.5157 8.3496 10.6118 8.23831L12.0021 6.628L12.0022 4.5C12.0022 4.33146 12.0098 4.16468 12.0247 4H3.25015L3.06573 4.00514C1.35661 4.10075 0 5.51697 0 7.25V7.434L11.0002 13.1547L14.5196 11.3244C14.5081 11.2178 14.5022 11.1096 14.5022 11L11.8759 11C11.7289 11 11.5804 11 11.4576 10.9933C11.3443 10.9871 11.1265 10.9716 10.905 10.8751C10.2038 10.5696 9.84476 9.78534 10.0717 9.0549ZM17.5022 14C16.4925 14 15.5993 13.5011 15.0556 12.7364L11.3462 14.6654C11.1293 14.7782 10.871 14.7782 10.6541 14.6654L0 9.124V18.75L0.00529957 18.9344C0.100909 20.6435 1.51712 22 3.25015 22H18.7502L18.9346 21.9949C20.6437 21.8992 22.0002 20.483 22.0002 18.75V11L20.5022 11C20.5022 12.6569 19.1591 14 17.5022 14Z" fill="current"/>
</svg>
