<svg width="72" height="72" viewBox="0 0 72 72" fill="none" xmlns="http://www.w3.org/2000/svg">
<path d="M61.3636 0C67.2379 0 72 4.76206 72 10.6364V61.3636C72 67.2379 67.2379 72 61.3636 72H10.6364C4.76206 72 0 67.2379 0 61.3636V10.6364C0 4.76206 4.76206 0 10.6364 0H61.3636ZM61.3636 4.90909H10.6364C7.47328 4.90909 4.90909 7.47328 4.90909 10.6364V39.2727H24.5455C25.7881 39.2727 26.8151 40.1961 26.9776 41.3942L27 41.7273C27 46.6978 31.0294 50.7273 36 50.7273C40.9706 50.7273 45 46.6978 45 41.7273C45 40.4846 45.9234 39.4577 47.1215 39.2951L47.4545 39.2727H67.0909V10.6364C67.0909 7.47328 64.5267 4.90909 61.3636 4.90909Z" fill="#DCDCDD"/>
</svg>
