<svg width="20" height="16" viewBox="0 0 20 16" fill="none" xmlns="http://www.w3.org/2000/svg">
<path d="M14 2.5H3.25C2.33183 2.5 1.57881 3.20711 1.5058 4.10647L1.502 4.206L9 8.15246L15.0291 4.9788C15.6621 5.60987 16.5355 6 17.5 6C17.6701 6 17.8373 5.98787 18.0009 5.96442L18 12.75C18 14.483 16.6435 15.8992 14.9344 15.9949L14.75 16H3.25C1.51697 16 0.100754 14.6435 0.00514483 12.9344L0 12.75V4.25C0 2.51697 1.35645 1.10075 3.06558 1.00514L3.25 0.999967H14.3368C14.1209 1.4546 14 1.96319 14 2.5ZM16.5 5.899L9.34931 9.66369C9.16189 9.76233 8.94313 9.77642 8.74676 9.70596L8.65069 9.66369L1.5 5.9V12.75C1.5 13.6682 2.20711 14.4212 3.10647 14.4942L3.25 14.5H14.75C15.6682 14.5 16.4212 13.7929 16.4942 12.8935L16.5 12.75V5.899ZM17.5 0C18.8807 0 20 1.11929 20 2.5C20 3.88071 18.8807 5 17.5 5C16.1193 5 15 3.88071 15 2.5C15 1.11929 16.1193 0 17.5 0Z" fill="#FF3B30"/>
</svg>
