<svg width="73" height="73" viewBox="0 0 73 73" fill="none" xmlns="http://www.w3.org/2000/svg">
<path d="M5.39961 9.9999C5.39961 4.69797 9.69768 0.399902 14.9996 0.399902H48.5996C53.9016 0.399902 58.1996 4.69797 58.1996 9.9999V43.5999H72.5996V53.1999C72.5996 61.1528 66.1525 67.5999 58.1996 67.5999H48.2012C47.8468 66.598 47.2717 65.6772 46.5062 64.911L36.9062 55.3111C39.1037 50.7141 39.6054 45.4884 38.3227 40.5574C37.7106 38.2045 36.7111 35.9911 35.3815 33.9999H41.3996C42.7251 33.9999 43.7996 32.9254 43.7996 31.5999C43.7996 30.2744 42.7251 29.1999 41.3996 29.1999H31.0006C30.6425 28.9103 30.2744 28.6315 29.8965 28.3641C25.7375 25.4207 20.672 24.0422 15.595 24.4723C11.9259 24.7832 8.42155 26.0242 5.39961 28.0478V9.9999ZM58.1996 62.7999C63.5016 62.7999 67.7996 58.5018 67.7996 53.1999V48.3999H58.1996V62.7999ZM22.1996 14.7999C20.8741 14.7999 19.7996 15.8744 19.7996 17.1999C19.7996 18.5254 20.8741 19.5999 22.1996 19.5999H41.3996C42.7251 19.5999 43.7996 18.5254 43.7996 17.1999C43.7996 15.8744 42.7251 14.7999 41.3996 14.7999H22.1996ZM27.4796 59.4399C24.5746 61.6265 21.0357 62.8062 17.3996 62.7999C13.6151 62.7999 9.94143 61.5221 6.97383 59.1735C4.00622 56.8249 1.91855 53.5431 1.04904 49.8598C0.179534 46.1765 0.579139 42.3075 2.18311 38.8797C3.78708 35.4519 6.50145 32.666 9.88644 30.9735C13.2714 29.2811 17.1287 28.7811 20.8333 29.5546C24.538 30.3281 27.8729 32.3298 30.2979 35.2354C32.7228 38.1409 34.0956 41.7802 34.194 45.5634C34.2923 49.3467 33.1103 53.0523 30.8396 56.0799L43.1132 68.2863C43.5639 68.7363 43.8173 69.3469 43.8178 69.9838C43.8182 70.6207 43.5656 71.2317 43.1156 71.6823C42.6656 72.133 42.055 72.3864 41.4181 72.3868C40.7813 72.3873 40.1703 72.1347 39.7196 71.6847L27.4796 59.4399ZM10.7328 55.9776C12.7062 57.2961 15.0263 57.9999 17.3996 57.9999C18.9755 57.9999 20.5359 57.6895 21.9918 57.0865C23.4477 56.4834 24.7706 55.5995 25.8849 54.4852C26.9992 53.3709 27.8831 52.048 28.4862 50.5921C29.0892 49.1362 29.3996 47.5758 29.3996 45.9999C29.3996 43.6265 28.6958 41.3065 27.3773 39.3331C26.0587 37.3597 24.1845 35.8216 21.9918 34.9134C19.7991 34.0051 17.3863 33.7675 15.0585 34.2305C12.7308 34.6935 10.5926 35.8364 8.91434 37.5146C7.23611 39.1929 6.09322 41.3311 5.6302 43.6588C5.16718 45.9866 5.40482 48.3994 6.31307 50.5921C7.22132 52.7848 8.75939 54.659 10.7328 55.9776Z" fill="#DCDCDD"/>
</svg>
