<svg width="20" height="24" viewBox="0 0 20 24" fill="current" xmlns="http://www.w3.org/2000/svg">
<path d="M5.04163 11.4167C4.55838 11.4167 4.16663 11.8084 4.16663 12.2917C4.16663 12.7749 4.55838 13.1667 5.04163 13.1667C5.52487 13.1667 5.91663 12.7749 5.91663 12.2917C5.91663 11.8084 5.52487 11.4167 5.04163 11.4167ZM4.16663 15.7917C4.16663 15.3084 4.55838 14.9167 5.04163 14.9167C5.52487 14.9167 5.91663 15.3084 5.91663 15.7917C5.91663 16.2749 5.52487 16.6667 5.04163 16.6667C4.55838 16.6667 4.16663 16.2749 4.16663 15.7917ZM7.66663 12.2917C7.66663 11.8084 8.05838 11.4167 8.54163 11.4167H12.1043C12.5876 11.4167 12.9793 11.8084 12.9793 12.2917C12.9793 12.7749 12.5876 13.1667 12.1043 13.1667H8.54163C8.05838 13.1667 7.66663 12.7749 7.66663 12.2917ZM8.54163 14.9167C8.05838 14.9167 7.66663 15.3084 7.66663 15.7917C7.66663 16.2749 8.05838 16.6667 8.54163 16.6667H12.1043C12.5876 16.6667 12.9793 16.2749 12.9793 15.7917C12.9793 15.3084 12.5876 14.9167 12.1043 14.9167H8.54163ZM3.29163 0.333333C1.84188 0.333333 0.666626 1.50859 0.666626 2.95833V18.125C0.666626 19.5747 1.84188 20.75 3.29163 20.75H13.7916C15.2414 20.75 16.4166 19.5747 16.4166 18.125V8.34699C16.4166 7.6508 16.1401 6.98312 15.6478 6.49083L10.2591 1.10218C9.76684 0.609895 9.09916 0.333333 8.40297 0.333333H3.29163ZM2.41663 2.95833C2.41663 2.47508 2.80838 2.08333 3.29163 2.08333H8.25452V5.87212C8.25452 7.32186 9.42977 8.49712 10.8795 8.49712H14.6666V18.125C14.6666 18.6082 14.2749 19 13.7916 19H3.29163C2.80838 19 2.41663 18.6082 2.41663 18.125V2.95833ZM10.0045 5.87212V3.32244L13.4292 6.74712H10.8795C10.3963 6.74712 10.0045 6.35537 10.0045 5.87212ZM6.20932 23.6667C5.06637 23.6667 4.09404 22.9362 3.73368 21.9167H13.7926C15.8867 21.9167 17.5843 20.2191 17.5843 18.125V8.42637L18.5655 9.40753C19.0578 9.89981 19.3343 10.5675 19.3343 11.2637V18.125C19.3343 21.1856 16.8532 23.6667 13.7926 23.6667H6.20932Z" fill="current"/>
</svg>
