<svg width="20" height="22" viewBox="0 0 20 22" fill="none" xmlns="http://www.w3.org/2000/svg">
<path d="M10.8555 13.5002L12.3555 12.0002H2.25278C1.01076 12.0002 0.00390625 13.007 0.00390625 14.2491V14.8267C0.00390625 15.7195 0.322425 16.583 0.902186 17.2619C2.29795 18.8964 4.34464 19.7932 6.9999 19.9691C6.99582 19.7863 7.01601 19.5982 7.0636 19.4078L7.29455 18.484C4.92119 18.3643 3.18576 17.6262 2.04287 16.2878C1.69502 15.8805 1.50391 15.3624 1.50391 14.8267V14.2491C1.50391 13.8355 1.83919 13.5002 2.25278 13.5002H10.8555ZM8.00036 0.00488281C10.7618 0.00488281 13.0004 2.24346 13.0004 5.00488C13.0004 7.76631 10.7618 10.0049 8.00036 10.0049C5.23894 10.0049 3.00036 7.76631 3.00036 5.00488C3.00036 2.24346 5.23894 0.00488281 8.00036 0.00488281ZM8.00036 1.50488C6.06737 1.50488 4.50036 3.07189 4.50036 5.00488C4.50036 6.93788 6.06737 8.50488 8.00036 8.50488C9.93336 8.50488 11.5004 6.93788 11.5004 5.00488C11.5004 3.07189 9.93336 1.50488 8.00036 1.50488ZM15.0999 10.6695L9.19743 16.5719C8.8533 16.916 8.60916 17.3472 8.49112 17.8194L8.03345 19.6501C7.83441 20.4462 8.55555 21.1674 9.35169 20.9683L11.1824 20.5106C11.6545 20.3926 12.0857 20.1485 12.4299 19.8043L18.3323 13.9019C19.2249 13.0093 19.2249 11.5621 18.3323 10.6695C17.4397 9.77685 15.9925 9.77685 15.0999 10.6695Z" fill="#3D5DFF"/>
</svg>
