<svg width="18" height="18" viewBox="0 0 18 18" fill="none" xmlns="http://www.w3.org/2000/svg">
<path d="M13.5303 9.2796L13.4462 9.35221C13.1526 9.57007 12.7359 9.54586 12.4697 9.2796L9.75029 6.56027L9.75 13.25L9.74315 13.3517C9.69349 13.7178 9.3797 14 9 14L8.89823 13.9931C8.53215 13.9435 8.25 13.6297 8.25 13.25L8.2503 6.55827L5.52961 9.2802L5.4455 9.35283C5.15193 9.57074 4.73527 9.54662 4.46895 9.2804C4.176 8.98756 4.17591 8.51269 4.46875 8.21974L8.46875 4.21821L8.55286 4.14557C8.84647 3.92764 9.2632 3.95181 9.52951 4.21811L13.5303 8.21894L13.6029 8.30305C13.8208 8.59667 13.7966 9.01333 13.5303 9.2796ZM3.25 18C1.45507 18 0 16.5449 0 14.75V3.25C0 1.45507 1.45507 0 3.25 0H14.75C16.5449 0 18 1.45507 18 3.25V14.75C18 16.5449 16.5449 18 14.75 18H3.25ZM1.5 14.75C1.5 15.7165 2.2835 16.5 3.25 16.5H14.75C15.7165 16.5 16.5 15.7165 16.5 14.75V3.25C16.5 2.2835 15.7165 1.5 14.75 1.5H3.25C2.2835 1.5 1.5 2.2835 1.5 3.25V14.75Z" fill="#3D5DFF"/>
</svg>
