<svg width="16" height="20" viewBox="0 0 16 20" fill="none" xmlns="http://www.w3.org/2000/svg">
<path d="M14.9958 9C15.5087 9 15.9313 9.38604 15.9891 9.88338L15.9958 10V16C15.9958 18.1422 14.3119 19.8911 12.1955 19.9951L11.9958 20H4C1.8578 20 0.108921 18.316 0.00489521 16.1996L0 16V10C0 9.44772 0.447715 9 1 9C1.51284 9 1.93551 9.38604 1.99327 9.88338L2 10V16C2 17.0544 2.81588 17.9182 3.85074 17.9945L4 18H11.9958C13.0502 18 13.914 17.1841 13.9903 16.1493L13.9958 16V10C13.9958 9.44772 14.4435 9 14.9958 9ZM2.28871 5.28943L7.28636 0.29282C7.64668 -0.0674261 8.21353 -0.0952937 8.60581 0.209328L8.70002 0.29241L13.7035 5.28902C14.0943 5.67928 14.0947 6.31245 13.7044 6.70324C13.3442 7.06397 12.777 7.09208 12.3845 6.78733L12.2902 6.7042L8.996 3.415L8.99629 13.2549C8.99629 13.7678 8.61025 14.1905 8.11291 14.2482L7.99629 14.2549C7.48346 14.2549 7.06079 13.8689 7.00302 13.3716L6.99629 13.2549L6.996 3.41L3.70278 6.70379C3.34226 7.06424 2.77503 7.09191 2.38277 6.78685L2.28857 6.70365C1.92812 6.34313 1.90045 5.77589 2.20551 5.38363L2.28871 5.28943L7.28636 0.29282L2.28871 5.28943Z" fill="#3D5DFF"/>
</svg>
