<svg width="16" height="20" viewBox="0 0 16 20" fill="none" xmlns="http://www.w3.org/2000/svg">
<path d="M3.75 9.5C3.33579 9.5 3 9.83579 3 10.25C3 10.6642 3.33579 11 3.75 11C4.16421 11 4.5 10.6642 4.5 10.25C4.5 9.83579 4.16421 9.5 3.75 9.5ZM3 13.25C3 12.8358 3.33579 12.5 3.75 12.5C4.16421 12.5 4.5 12.8358 4.5 13.25C4.5 13.6642 4.16421 14 3.75 14C3.33579 14 3 13.6642 3 13.25ZM6 10.25C6 9.83579 6.33579 9.5 6.75 9.5H9.80375C10.218 9.5 10.5538 9.83579 10.5538 10.25C10.5538 10.6642 10.218 11 9.80375 11H6.75C6.33579 11 6 10.6642 6 10.25ZM6.75 12.5C6.33579 12.5 6 12.8358 6 13.25C6 13.6642 6.33579 14 6.75 14H9.80375C10.218 14 10.5538 13.6642 10.5538 13.25C10.5538 12.8358 10.218 12.5 9.80375 12.5H6.75ZM2.25 0C1.00736 0 0 1.00736 0 2.25V15.25C0 16.4926 1.00736 17.5 2.25 17.5H11.25C12.4926 17.5 13.5 16.4926 13.5 15.25V6.86885C13.5 6.27211 13.2629 5.69981 12.841 5.27786L8.22214 0.65901C7.80019 0.237053 7.22789 0 6.63115 0H2.25ZM1.5 2.25C1.5 1.83579 1.83579 1.5 2.25 1.5H6.50391V4.74753C6.50391 5.99017 7.51127 6.99753 8.75391 6.99753H12V15.25C12 15.6642 11.6642 16 11.25 16H2.25C1.83579 16 1.5 15.6642 1.5 15.25V2.25ZM8.00391 4.74753V2.56209L10.9393 5.49753H8.75391C8.33969 5.49753 8.00391 5.16174 8.00391 4.74753ZM4.75088 20C3.77121 20 2.93778 19.3739 2.62891 18.5H11.2509C13.0458 18.5 14.5009 17.0449 14.5009 15.25V6.93689L15.3419 7.77788C15.7638 8.19984 16.0009 8.77213 16.0009 9.36887V15.25C16.0009 17.8734 13.8742 20 11.2509 20H4.75088Z" fill="#3D5DFF"/>
</svg>
