<svg width="16" height="18" viewBox="0 0 16 18" fill="none" xmlns="http://www.w3.org/2000/svg">
<path d="M0.209378 7.73272C-0.076309 8.03264 -0.0647656 8.50738 0.235161 8.79306C0.535087 9.07875 1.00982 9.06721 1.29551 8.76728L7.25 2.516V17.25C7.25 17.6642 7.58579 18 8 18C8.41421 18 8.75 17.6642 8.75 17.25V2.51565L14.7048 8.76728C14.9905 9.06721 15.4652 9.07875 15.7652 8.79306C16.0651 8.50738 16.0766 8.03264 15.791 7.73272L8.72425 0.313787C8.56323 0.144741 8.35782 0.0447664 8.14428 0.0138645C8.09759 0.00476646 8.04935 0 8 0C7.9503 0 7.90174 0.00483322 7.85474 0.0140553C7.64168 0.0451765 7.43677 0.145086 7.27608 0.313787L0.209378 7.73272Z" fill="#8A8A8E"/>
</svg>
