<svg width="20" height="16" viewBox="0 0 20 16" fill="none" xmlns="http://www.w3.org/2000/svg">
<path d="M5.99388 5.43558C6.30561 5.70834 6.33719 6.18217 6.06443 6.49389L5.40284 7.24999H8.26456C8.67877 7.24999 9.01456 7.58578 9.01456 7.99999C9.01456 8.4142 8.67877 8.74999 8.26456 8.74999H5.40281L6.06444 9.50613C6.33719 9.81786 6.3056 10.2917 5.99388 10.5644C5.68215 10.8372 5.20832 10.8056 4.93556 10.4939L3.18556 8.49386C2.93814 8.21109 2.93815 7.78888 3.18557 7.50611L4.93557 5.50613C5.20833 5.1944 5.68216 5.16282 5.99388 5.43558ZM13.9502 6.49389C13.6775 6.18217 13.709 5.70834 14.0208 5.43558C14.3325 5.16282 14.8063 5.1944 15.0791 5.50613L16.8291 7.50611C17.0765 7.78888 17.0765 8.21109 16.8291 8.49386L15.0791 10.4939C14.8063 10.8056 14.3325 10.8372 14.0208 10.5644C13.709 10.2917 13.6775 9.81786 13.9502 9.50613L14.6118 8.74999H11.7501C11.3359 8.74999 11.0001 8.4142 11.0001 7.99999C11.0001 7.58578 11.3359 7.24999 11.7501 7.24999H14.6118L13.9502 6.49389ZM0 2.25C0 1.00736 1.00736 0 2.25 0H17.75C18.9926 0 20 1.00736 20 2.25V13.75C20 14.9926 18.9926 16 17.75 16H2.25C1.00736 16 0 14.9926 0 13.75V2.25ZM2.25 1.5C1.83579 1.5 1.5 1.83579 1.5 2.25V13.75C1.5 14.1642 1.83579 14.5 2.25 14.5H17.75C18.1642 14.5 18.5 14.1642 18.5 13.75V2.25C18.5 1.83579 18.1642 1.5 17.75 1.5H2.25Z" fill="#3D5DFF"/>
</svg>
