<svg width="20" height="18" viewBox="0 0 20 18" fill="none" xmlns="http://www.w3.org/2000/svg">
<path d="M1 0.75C1 0.335786 1.33579 0 1.75 0H18.25C18.6642 0 19 0.335786 19 0.75C19 1.16421 18.6642 1.5 18.25 1.5H17.208L19.9446 8.21703C19.9812 8.30688 20 8.40298 20 8.5C20 10.433 18.433 12 16.5 12C14.567 12 13 10.433 13 8.5C13 8.40298 13.0188 8.30688 13.0554 8.21703L15.792 1.5H10.75L10.75 13.5H14.75C15.9926 13.5 17 14.5074 17 15.75C17 16.9926 15.9926 18 14.75 18H5.25293C4.01029 18 3.00293 16.9926 3.00293 15.75C3.00293 14.5074 4.01029 13.5 5.25293 13.5H9.25L9.24999 1.5H4.208L6.94457 8.21703C6.98118 8.30688 7 8.40298 7 8.5C7 10.433 5.433 12 3.5 12C1.567 12 0 10.433 0 8.5C0 8.40298 0.0188248 8.30688 0.0554307 8.21703L2.792 1.5H1.75C1.33579 1.5 1 1.16421 1 0.75ZM4.50293 15.75C4.50293 16.1642 4.83872 16.5 5.25293 16.5H14.75C15.1642 16.5 15.5 16.1642 15.5 15.75C15.5 15.3358 15.1642 15 14.75 15H5.25293C4.83872 15 4.50293 15.3358 4.50293 15.75ZM5.35462 9.25H1.64538C1.94207 9.98296 2.66066 10.5 3.5 10.5C4.33934 10.5 5.05793 9.98296 5.35462 9.25ZM5.13459 7.75L3.5 3.73782L1.86541 7.75H5.13459ZM16.5 10.5C17.3393 10.5 18.0579 9.98296 18.3546 9.25H14.6454C14.9421 9.98296 15.6607 10.5 16.5 10.5ZM14.8654 7.75H18.1346L16.5 3.73782L14.8654 7.75Z" fill="#3D5DFF"/>
</svg>
